<svg width="47" height="46" viewBox="0 0 47 46" fill="none" xmlns="http://www.w3.org/2000/svg">
	<rect x="0.5" y="1.5" width="45.6783" height="44" rx="7.5" fill="#EAE8FE" stroke="#835BF9" />
	<path
		d="M29.345 22.1C29.725 22.1 30.035 22.23 30.275 22.49C30.535 22.73 30.665 23.04 30.665 23.42C30.665 23.8 30.535 24.12 30.275 24.38C30.035 24.62 29.725 24.74 29.345 24.74H24.665V29.39C24.665 29.77 24.535 30.09 24.275 30.35C24.035 30.61 23.725 30.74 23.345 30.74C22.965 30.74 22.645 30.61 22.385 30.35C22.145 30.09 22.025 29.77 22.025 29.39V24.74H17.345C16.965 24.74 16.645 24.62 16.385 24.38C16.145 24.12 16.025 23.8 16.025 23.42C16.025 23.04 16.145 22.73 16.385 22.49C16.645 22.23 16.965 22.1 17.345 22.1H22.025V17.42C22.025 17.04 22.145 16.73 22.385 16.49C22.645 16.23 22.965 16.1 23.345 16.1C23.725 16.1 24.035 16.23 24.275 16.49C24.535 16.73 24.665 17.04 24.665 17.42V22.1H29.345Z"
		fill="#794BFF" />
</svg>